<?xml version="1.0" encoding="utf-8"?>
<!-- Generator: Adobe Illustrator 21.0.0, SVG Export Plug-In . SVG Version: 6.00 Build 0)  -->
<svg version="1.1" id="图层_1" xmlns="http://www.w3.org/2000/svg" xmlns:xlink="http://www.w3.org/1999/xlink" x="0px" y="0px"
	 viewBox="0 0 38 38" style="enable-background:new 0 0 38 38;" xml:space="preserve" preserveAspectRatio="none">
<style type="text/css">
	.st0{fill:#F64764;}
</style>
<g>
	<g>
		<path class="st0" d="M19,2c9.4,0,17,7.6,17,17s-7.6,17-17,17S2,28.4,2,19S9.6,2,19,2 M19,0C8.5,0,0,8.5,0,19s8.5,19,19,19
			s19-8.5,19-19S29.5,0,19,0L19,0z"/>
	</g>
	<path class="st0" d="M17.8,24.2v-7.5c0-0.2-0.1-0.3-0.2-0.4c-0.1-0.1-0.3-0.2-0.4-0.2c-0.3,0-0.6,0.3-0.6,0.6v7.5
		c0,0.3,0.3,0.6,0.6,0.6C17.5,24.8,17.8,24.6,17.8,24.2L17.8,24.2z M16.7,12.2h4.7c0.3,0,0.6-0.3,0.6-0.6c0-0.3-0.3-0.6-0.6-0.6
		h-4.7c-0.3,0-0.6,0.3-0.6,0.6C16,11.9,16.3,12.2,16.7,12.2L16.7,12.2z M24.3,15.1c-0.3,0-0.5,0.2-0.6,0.5h0v9.7
		c0,0.1,0,0.3-0.1,0.3c-0.1,0.1-0.2,0.1-0.3,0.1h-8.4c-0.3,0-0.5-0.2-0.5-0.5v-9.7h0c-0.1-0.3-0.3-0.5-0.6-0.5
		c-0.3,0-0.5,0.2-0.6,0.5h0v10.7c0,0.4,0.3,0.7,0.7,0.7h10.3c0.4,0,0.7-0.3,0.7-0.7V15.6h0C24.8,15.3,24.6,15.1,24.3,15.1L24.3,15.1
		z M21.5,24.2v-7.5c0-0.3-0.3-0.6-0.6-0.6c-0.3,0-0.6,0.3-0.6,0.6v7.5c0,0.3,0.3,0.6,0.6,0.6c0.2,0,0.3-0.1,0.4-0.2
		C21.4,24.5,21.5,24.4,21.5,24.2L21.5,24.2z M26,12.9H12c-0.3,0-0.6,0.3-0.6,0.6c0,0.3,0.3,0.6,0.6,0.6h14c0.3,0,0.6-0.3,0.6-0.6
		C26.6,13.2,26.4,12.9,26,12.9L26,12.9z M26,12.9"/>
</g>
</svg>
