<?xml version="1.0" encoding="utf-8"?>
<!-- Generator: Adobe Illustrator 21.0.0, SVG Export Plug-In . SVG Version: 6.00 Build 0)  -->
<svg version="1.1" id="组_36" xmlns="http://www.w3.org/2000/svg" xmlns:xlink="http://www.w3.org/1999/xlink" x="0px" y="0px"
	 viewBox="0 0 33.4 40" style="enable-background:new 0 0 33.4 40;" xml:space="preserve">
<style type="text/css">
	.st0{opacity:0.3;fill:#42A9F4;enable-background:new    ;}
	.st1{fill:#42A9F4;}
	.st2{fill:none;stroke:#42A9F4;}
	.st3{opacity:0.5;enable-background:new    ;}
	.st4{opacity:0.3;}
	.st5{opacity:0.5;}
	.st6{enable-background:new    ;}
</style>
<g>
	<path id="形状_1" class="st0" d="M6.6,0.5c6.7,0.1,7.6,10.1,7.8,13.5c0.2,4.3-1.1,7.1-1.8,9.7c-0.6,2.1-1,4.3-1.1,6.4
		s0,4.2-0.4,5.4c-1.2,3.9-3.5,4.3-6.1,3.8C2.3,39,0.1,36.2,0.6,33s2.3-7,2.2-11.2c0-3.3-3.4-6-2.8-10.6C0.5,7.5,2,0.4,6.6,0.5z"/>
	<g id="形状_1_拷贝_1_">
		<path class="st1" d="M1.3,7.2L0.4,6.9C1.6,2.4,3.7,0,6.5,0h0.1v1H6.5C4.2,1,2.4,3.1,1.3,7.2z"/>
	</g>
	<path id="形状_1_拷贝_4_" class="st2" d="M2.9,21.8"/>
	<g id="形状_1_拷贝_3_">
		<path class="st1" d="M6.7,40l-0.1-1c1.3-0.1,2.9-0.5,3.9-3.6c0.2-0.6,0.2-1.4,0.3-2h1c-0.1,1.1-0.2,1.8-0.3,2.3
			C10.6,38.5,9.1,39.9,6.7,40z"/>
	</g>
	<path id="形状_2" class="st0" d="M11.7,5.9L9.3,6.5c0.3,0.9,0.6,1.8,0.8,2.7l2.4-0.5c-0.2-0.7-0.4-1.4-0.6-2.1
		C11.8,6.3,11.7,6.1,11.7,5.9 M6.6,4.9C6.4,5.2,5.9,6,5.4,7.5L7,7.9l1.5-0.7C8.4,7,8.4,6.8,8.3,6.6C7.8,5.4,7.1,4.9,6.6,4.9
		 M8.8,8.2L7.1,9.1l-2-0.5c-0.3,1-0.5,2.1-0.7,3.2c-0.1,0.5,0,1.1,0,1.6v-0.1l3,0.5l2.4-1.1l0,0C9.6,11.2,9.2,9.7,8.8,8.2 M4.5,16.1
		l-2.3,0.7c0.1,0.2,0.2,0.4,0.3,0.6c0.3,0.6,0.6,1.2,0.8,1.8l2.3-0.6C5.5,18.5,5,17.1,4.5,16.1 M12.8,9.9l-2.4,0.5
		c0.2,0.9,0.4,1.8,0.5,2.5h2.3C13.1,11.9,13,10.8,12.8,9.9 M7.9,31.4c-0.1,0.8-0.1,1.7-0.2,2.5l2.5,0.1c0-0.6,0.1-1.2,0.1-1.9
		c0-0.2,0-0.5,0-0.7L7.9,31.4 M2.3,5.7C2,6.5,1.8,7.3,1.6,8.2L4,8.8C4.2,8,4.4,7.2,4.7,6.5L2.3,5.7 M3.4,13.2L1,13.3
		c0.1,0.9,0.4,1.7,0.7,2.5L4,15.2C3.7,14.6,3.5,13.9,3.4,13.2 M1.5,33.6c-0.1,1,0.2,2.1,0.7,3l2-1.4C4.1,35,4.1,34.8,4,34.6
		c0-0.1,0-0.2,0-0.3v0.1L1.5,33.6 M1.3,9.3C1.2,9.9,1.1,10.6,1,11.4c0,0.2,0,0.5-0.1,0.7l2.4-0.2c0-0.1,0-0.2,0-0.3
		c0.1-0.6,0.2-1.2,0.3-1.8L1.3,9.3 M7.6,35c-0.3,1.1-0.8,1.3-1.5,1.3H6c-0.4,0-0.8-0.1-1.1-0.2l-2,1.4c0.6,0.6,1.3,1,2.1,1.1
		c0.4,0.1,0.9,0.1,1.3,0.1c0.9,0,1.5-0.2,2.1-0.6c0.7-0.5,1.2-1.4,1.6-2.7c0-0.1,0.1-0.2,0.1-0.3L7.6,35 M10.8,17.5
		c-0.1,1-0.4,1.9-0.7,2.5l2.3,0.7c0.2-0.8,0.4-1.6,0.6-2.4L10.8,17.5 M11,14.1L11,14.1c0,0.8,0,1.6-0.1,2.4l2.3,0.8
		c0.1-1,0.2-2.1,0.1-3.1l0,0L11,14.1 M6.4,1.6L6.4,1.6 M6.4,1.6L6.4,1.6c-0.8,0-1.6,0.3-2.2,0.9C3.7,3,3.3,3.6,2.9,4.3l2.4,0.9
		C5.6,4.4,6,4,6.2,3.9c0.1,0,0.2,0,0.3,0l0,0c0.7,0,1.5,0.4,2.1,1.4L11,4.8C10.8,4.1,10.3,3.5,9.8,3C8.9,2.1,7.7,1.6,6.4,1.6
		C6.5,1.6,6.5,1.6,6.4,1.6 M6.4,1.6L6.4,1.6 M8.3,28.3c0,0.4-0.1,0.9-0.2,1.4c0,0.2-0.1,0.5-0.1,0.7l2.3,0.1c0-0.1,0-0.2,0-0.3
		c0-0.6,0.1-1.2,0.2-1.7L8.3,28.3 M10,14.1l-2.4,1.1l-2.7-0.5C5,14.8,5,14.9,5.1,15.1c0.1,0.1,0.1,0.2,0.2,0.3
		c0.3,0.7,0.7,1.4,0.9,2.1l2.1,0.3l1.5-0.7C9.9,16.1,10,15.1,10,14.1L10,14.1 M5.3,32.1C5,32.8,4.9,33.6,5,34.4
		c0,0.2,0.1,0.6,0.3,0.8c0.2,0.1,0.4,0.1,0.6,0.1l0,0H6c0.1,0,0.2,0,0.3,0c0,0,0.2-0.2,0.3-0.9c0.1-0.7,0.1-1.3,0.2-2L5.3,32.1
		 M3.2,26.8c-0.2,0.8-0.4,1.7-0.6,2.4L5,29.9c0.2-0.7,0.4-1.7,0.5-2.1l0,0L3.2,26.8 M6.3,28.7c-0.2,0.9-0.4,1.7-0.7,2.6l1.3,0.2
		c0-0.7,0.1-1.4,0.2-1.9c0-0.3,0.1-0.5,0.1-0.7L6.3,28.7 M2.3,30.2C2,31,1.8,31.8,1.7,32.5L4,33.2c0.1-0.8,0.3-1.6,0.7-2.4
		c0,0,0,0,0-0.1L2.3,30.2"/>
	<g id="椭圆_1">
		<path class="st1" d="M20.2,31.7c-6.5,0-11.8-5.3-11.8-11.8S13.7,8.1,20.2,8.1S32,13.4,32,19.9S26.7,31.7,20.2,31.7z M20.2,9.1
			c-6,0-10.8,4.9-10.8,10.8s4.9,10.8,10.8,10.8S31,25.8,31,19.9S26.2,9.1,20.2,9.1z"/>
	</g>
	<g id="椭圆_1_拷贝" class="st3">
		<g class="st4">
			<circle class="st1" cx="20.2" cy="19.9" r="8.4"/>
		</g>
		<g>
			<path class="st1" d="M20.2,28.8c-4.9,0-8.9-4-8.9-8.9s4-8.9,8.9-8.9s8.9,4,8.9,8.9S25.2,28.8,20.2,28.8z M20.2,12
				c-4.4,0-7.9,3.6-7.9,7.9c0,4.4,3.6,7.9,7.9,7.9c4.4,0,7.9-3.6,7.9-7.9C28.2,15.5,24.6,12,20.2,12z"/>
		</g>
	</g>
	<g id="椭圆_1_拷贝_2" class="st3">
		<g class="st5">
			<circle class="st1" cx="20.3" cy="20" r="5.2"/>
		</g>
		<g>
			<path class="st1" d="M20.3,25.7c-3.2,0-5.7-2.6-5.7-5.7c0-3.2,2.6-5.7,5.7-5.7S26,16.9,26,20C26.1,23.2,23.5,25.7,20.3,25.7z
				 M20.3,15.3c-2.6,0-4.8,2.1-4.8,4.8s2.1,4.8,4.8,4.8s4.8-2.1,4.8-4.8S23,15.3,20.3,15.3z"/>
		</g>
	</g>
	<circle id="椭圆_1_拷贝_3" class="st1" cx="20.2" cy="19.9" r="2.3"/>
	<path id="矩形_10_拷贝" class="st1" d="M6.9,19.5h26.5v0.8H6.9V19.5z M19.8,6.5h0.8V33h-0.8V6.5z"/>
	<g id="形状_1_2_" class="st6">
		<path class="st1" d="M14.6,18.3l-1-0.2c0.2-1.4,0.3-2.7,0.3-4.1c-0.2-2.2-0.5-4.3-0.9-6l0.9-0.2c0.5,1.8,0.8,3.9,0.9,6.3
			C14.9,15.4,14.8,16.8,14.6,18.3z"/>
	</g>
	<g id="形状_1_1_" class="st6">
		<path class="st1" d="M2.7,26.9l-0.9-0.2c0.5-1.9,0.7-3.4,0.7-4.8c0-0.4,0-0.7-0.1-1.1l1-0.2C3.7,21.8,3.4,24.9,2.7,26.9z"/>
	</g>
</g>
</svg>
