<?xml version="1.0" encoding="utf-8"?>
<!-- Generator: Adobe Illustrator 21.0.0, SVG Export Plug-In . SVG Version: 6.00 Build 0)  -->
<svg version="1.1" id="组_37" xmlns="http://www.w3.org/2000/svg" xmlns:xlink="http://www.w3.org/1999/xlink" x="0px" y="0px"
	 viewBox="0 0 37.3 40.3" style="enable-background:new 0 0 37.3 40.3;" xml:space="preserve">
<style type="text/css">
	.st0{fill:none;stroke:#42A9F4;stroke-miterlimit:10;enable-background:new    ;}
	.st1{opacity:0.3;fill:#42A9F4;enable-background:new    ;}
	.st2{fill:#42A9F4;}
	.st3{fill:#42A9F4;fill-opacity:0;stroke:#42A9F4;}
	.st4{opacity:0.5;fill:#42A9F4;enable-background:new    ;}
	.st5{enable-background:new    ;}
</style>
<g>
	<path class="st0" d="M24.2,39.2"/>
	<path class="st1" d="M6.3,9c2.2,1.2,5,0.3,6.1-1.9c1.2-2.2,0.3-5-1.9-6.1c-2.2-1.2-5-0.3-6.1,1.9C3.2,5.1,4.1,7.9,6.3,9
		C6.3,9,6.3,9,6.3,9z"/>
	<path class="st1" d="M22.2,16.3c-0.7-1.3-2.4-1.9-3.7-1.2c0,0,0,0,0,0l-5.1,2.7L11.1,13c-0.2-0.3-0.4-0.6-0.6-0.9
		c-1.4-1.1-2.8-2-4.3-2.8C4.8,8.7,2.9,8,1.5,7.6v21.9l4.4,1.3l-1.8,5.5c-0.5,1.4,0.3,3,1.7,3.5s3-0.3,3.5-1.7c0,0,0,0,0-0.1l2.7-8.2
		c0.5-1.4-0.3-3-1.8-3.5c0,0,0,0,0,0L5.5,25l2.3-6l1.8,3.8c0.7,1.4,2.3,1.9,3.7,1.3c0,0,0.1,0,0.1,0l7.6-4
		C22.4,19.3,22.9,17.7,22.2,16.3z"/>
	<path id="形状_2" class="st2" d="M0.7,40.3C0.3,40.3,0,40,0,39.5v-0.9c0-0.4,0.3-0.7,0.7-0.7s0.7,0.3,0.7,0.7v0.9
		C1.5,40,1.1,40.3,0.7,40.3C0.7,40.3,0.7,40.3,0.7,40.3z M0.7,35.9c-0.4,0-0.7-0.3-0.7-0.7V5.3c0-0.4,0.3-0.7,0.7-0.7
		s0.7,0.3,0.7,0.7v29.9C1.5,35.6,1.1,35.9,0.7,35.9C0.7,35.9,0.7,35.9,0.7,35.9z M0.7,2.5C0.3,2.5,0,2.2,0,1.8V1
		c0-0.4,0.3-0.7,0.7-0.7S1.5,0.6,1.5,1v0.8C1.5,2.2,1.1,2.5,0.7,2.5C0.7,2.5,0.7,2.5,0.7,2.5z"/>
	<path id="形状_2-2" class="st2" d="M7.7,4.8l0.1-0.3c0.1-0.1,0-0.3-0.1-0.4c0,0,0,0,0,0l-1.9-1c-0.1-0.1-0.3,0-0.4,0.1
		c0,0,0,0,0,0L5.2,3.5c0,0-0.4,1.2,0.7,1.8C7.1,5.9,7.7,4.8,7.7,4.8z M11.6,6.3l-1.9-1c-0.1-0.1-0.3,0-0.4,0.1c0,0,0,0,0,0L9.1,5.6
		c0,0-0.6,1.1,0.6,1.7c1.1,0.6,1.8-0.4,1.8-0.4l0.1-0.3C11.8,6.5,11.7,6.3,11.6,6.3C11.6,6.3,11.6,6.3,11.6,6.3L11.6,6.3z"/>
	<circle id="椭圆_1" class="st3" cx="24" cy="18.8" r="11.5"/>
	<circle id="椭圆_1_拷贝_2" class="st4" cx="23.9" cy="18.7" r="4.7"/>
	<path id="矩形_10" class="st2" d="M32.3,19.2v-0.8h5v0.8H32.3z M23.5,10.5V5.3h0.8v5.2H23.5z M15.6,19.2h-5.2v-0.8h5.2V19.2z
		 M24.4,27.2v5h-0.8v-5H24.4z"/>
	<path id="矩形_11" class="st2" d="M26,19.2h-1.7v1.7h-0.8v-1.7h-1.7v-0.8h1.7v-1.7h0.8v1.7H26V19.2z"/>
	<g class="st5">
		<path class="st2" d="M13.4,5.8l-1-0.2c0.3-1.7-0.6-3.4-2.1-4.2C8.9,0.7,7.2,0.9,5.9,1.8L5.3,1C6.9-0.1,9-0.3,10.7,0.6
			C12.6,1.6,13.7,3.7,13.4,5.8z"/>
	</g>
	<g class="st5">
		<path class="st2" d="M5.7,40.3c-0.1,0-0.2-0.1-0.3-0.1c-1.5-0.7-2.3-2.4-1.7-4l1.6-5L3,30.5l0.3-1l3.2,1l-2,6
			c-0.4,1.1,0.1,2.3,1.2,2.8c0.1,0,0.1,0.1,0.2,0.1L5.7,40.3z"/>
	</g>
	<g class="st5">
		<path class="st2" d="M12.1,30.9l-1-0.3l0.3-0.9c0.4-1.2-0.3-2.4-1.4-2.8l0.3-1c1.7,0.6,2.7,2.4,2.1,4.1L12.1,30.9z"/>
	</g>
</g>
</svg>
