<?xml version="1.0" encoding="utf-8"?>
<!-- Generator: Adobe Illustrator 18.0.0, SVG Export Plug-In . SVG Version: 6.00 Build 0)  -->
<!DOCTYPE svg PUBLIC "-//W3C//DTD SVG 1.1//EN" "http://www.w3.org/Graphics/SVG/1.1/DTD/svg11.dtd">
<svg version="1.1" id="图层_1" xmlns="http://www.w3.org/2000/svg" xmlns:xlink="http://www.w3.org/1999/xlink" x="0px" y="0px"
	 viewBox="0 0 1025 598" enable-background="new 0 0 1025 598" xml:space="preserve">
<path opacity="0.5" fill-rule="evenodd" clip-rule="evenodd" d="M1014.7,478.5l-23.7,24l-9.3,67l-20,19l-233,8l-14-15
	c0,0-145.2,1-202.5,1c-57.3,0-202.5-1-202.5-1l-14,15l-233-8l-20-19l-9.3-67l-23.7-24c0,0-9-100-9-169s11-186,11-186l28-27l8-63
	l22-21l287-10l17,15c15.4-1,87.7-2.4,138.7-2.4s123,1.5,138.3,2.4l17-15l287,10l22,21l8,63l28,27c0,0,11,117,11,186
	S1014.7,478.5,1014.7,478.5z"/>
<path fill-rule="evenodd" clip-rule="evenodd" fill="none" stroke="#6AE3EB" stroke-miterlimit="10" d="M1014.7,478.5l-23.7,24
	l-9.3,67l-20,19l-233,8l-14-15c0,0-145.2,1-202.5,1c-57.3,0-202.5-1-202.5-1l-14,15l-233-8l-20-19l-9.3-67l-23.7-24c0,0-9-100-9-169
	s11-186,11-186l28-27l8-63l22-21l287-10l17,15c15.4-1,87.7-2.4,138.7-2.4s123,1.5,138.3,2.4l17-15l287,10l22,21l8,63l28,27
	c0,0,11,117,11,186S1014.7,478.5,1014.7,478.5z"/>
<path fill-rule="evenodd" clip-rule="evenodd" fill="none" stroke="#6AE3EB" stroke-width="3" stroke-miterlimit="10" d="M9.9,143.3
	c1.1-12.3,1.8-19.8,1.8-19.8l28-27l8-63l22-21L85.1,12 M79.1,589.1l-16.5-0.6l-20-19l-9.3-67l-23.7-24c0,0-0.7-7.2-1.6-19.2
	 M327.1,581.6c-10.9-0.1-17.5-0.1-17.5-0.1l-14,15l-21.9-0.8 M748.8,595.8l-20.1,0.7l-14-15c0,0-7,0-18.5,0.1 M1016.3,459
	c-1,12.1-1.6,19.5-1.6,19.5l-23.7,24l-9.3,67l-20,19l-16.6,0.6 M938.8,11.9l15.9,0.6l22,21l8,63l28,27c0,0,0.7,7.6,1.8,20.1
	 M632.1,16.8c8.5,0.3,15,0.5,18.5,0.7l17-15l21.5,0.7 M334.8,3.3l21.9-0.8l17,15c3.2-0.2,8.9-0.4,16.4-0.7"/>
<path opacity="0.5" fill-rule="evenodd" clip-rule="evenodd" fill="none" stroke="#6AE3EB" stroke-width="1.5" stroke-miterlimit="10" d="
	M29.1,154.9l1.7-19.2l26.9-26l7.7-60.6l21.2-20.2l17.1-0.6 M921.7,28.5c10.2,0.4,16.1,0.6,16.1,0.6L959,49.2l7.7,60.6l26.9,26
	c0,0,0.6,6.7,1.6,17.7 M997.4,441c-1.1,13.6-1.8,22-1.8,22l-22.8,23.1l-9,64.4l-19.2,18.3c0,0-5.5,0.2-14.9,0.5 M101.7,570.5
	c-13.5-0.5-21.9-0.8-21.9-0.8l-19.2-18.3l-9-64.4L28.9,464c0,0-0.8-9.1-2-23.6"/>
</svg>
